<?xml version="1.0" standalone="no"?>
<!DOCTYPE svg PUBLIC "-//W3C//DTD SVG 20010904//EN"
 "http://www.w3.org/TR/2001/REC-SVG-20010904/DTD/svg10.dtd">
<svg version="1.0" xmlns="http://www.w3.org/2000/svg"
 width="180.000000pt" height="19.000000pt" viewBox="0 0 180.000000 19.000000"
 preserveAspectRatio="xMidYMid meet">
<metadata>
Created by potrace 1.16, written by Peter Selinger 2001-2019
</metadata>
<g transform="translate(0.000000,19.000000) scale(0.068702,-0.007724)"
fill="#000000" stroke="none">
<path d="M1444 2405 c-27 -19 -67 -44 -89 -56 -22 -12 -66 -40 -99 -62 l-58
-39 232 -233 233 -233 60 -4 c62 -5 80 -16 129 -88 l17 -25 56 60 c30 33 63
74 71 90 9 17 27 42 41 56 44 48 41 83 -16 195 -72 139 -148 244 -179 244 -7
0 -39 -18 -71 -40 -31 -22 -64 -40 -72 -40 -9 0 -24 18 -34 39 -10 22 -28 50
-41 62 -13 12 -24 28 -24 35 0 23 -57 74 -83 74 -14 0 -47 -16 -73 -35z"/>
<path d="M520 1615 c0 -5 15 -25 33 -45 l32 -35 -37 34 -37 34 -54 -59 c-99
-107 -172 -198 -257 -321 -27 -39 -53 -73 -58 -75 -5 -1 -33 -30 -61 -63 -61
-72 -67 -109 -24 -149 24 -23 29 -24 36 -10 14 24 26 -2 20 -40 -4 -27 3 -38
46 -81 28 -28 51 -59 51 -71 0 -12 6 -27 14 -33 8 -7 12 -21 9 -31 -6 -23 13
-50 35 -50 9 0 40 26 69 58 52 54 55 56 68 38 15 -20 15 -20 30 0 15 18 15 16
10 -23 -6 -38 -3 -45 32 -85 21 -23 44 -47 51 -51 6 -4 12 -13 12 -20 0 -7 7
-25 15 -41 9 -16 14 -37 13 -45 -9 -53 43 -53 91 -1 l36 40 42 -87 c23 -49 55
-103 72 -121 17 -18 31 -39 31 -47 0 -24 66 -85 92 -85 15 0 54 21 93 50 37
28 71 50 74 50 4 0 17 -20 28 -44 12 -24 35 -59 52 -79 17 -19 31 -40 31 -45
0 -6 14 -27 31 -47 48 -54 97 -49 184 20 22 17 60 43 85 57 72 42 270 185 319
231 61 58 235 238 239 246 1 3 -26 34 -61 69 l-62 62 -60 -86 c-33 -48 -72
-104 -87 -125 -33 -46 -68 -58 -103 -35 -13 9 -52 57 -85 107 -63 93 -62 92
-115 72 -6 -2 -50 37 -99 86 -89 90 -89 90 -106 68 -10 -12 -63 -91 -119 -175
-110 -165 -134 -187 -178 -162 -14 8 -67 76 -118 150 -50 74 -149 218 -218
319 -70 101 -127 194 -127 206 0 11 23 53 50 92 28 39 50 74 50 77 0 3 -9 6
-20 6 -19 0 -20 7 -20 96 l0 95 46 -3 c58 -4 74 -23 57 -68 -14 -37 -1 -39 25
-3 17 24 18 29 4 55 -15 31 -47 48 -90 48 -17 0 -41 14 -69 42 -24 23 -43 38
-43 33z"/>
<path d="M1948 1603 c-10 -2 -18 -7 -18 -9 0 -3 18 -35 40 -71 38 -63 40 -65
40 -35 0 22 5 32 15 32 12 0 15 -13 15 -55 l0 -54 78 -75 c42 -41 79 -70 81
-65 4 13 -61 147 -108 219 -67 104 -94 126 -143 113z"/>
<path d="M1112 1516 c-31 -16 -252 -343 -252 -371 0 -32 131 -219 155 -223 17
-2 50 41 178 233 114 170 163 235 177 235 14 0 63 -66 177 -235 118 -175 163
-234 178 -234 26 0 155 183 155 220 0 33 -209 347 -247 371 -25 16 -56 18
-263 18 -174 -1 -241 -4 -258 -14z"/>
</g>
</svg>
